<?xml version="1.0" standalone="no"?>
<!DOCTYPE svg PUBLIC "-//W3C//DTD SVG 20010904//EN"
 "http://www.w3.org/TR/2001/REC-SVG-20010904/DTD/svg10.dtd">
<svg version="1.0" xmlns="http://www.w3.org/2000/svg"
 width="512.000000pt" height="512.000000pt" viewBox="0 0 512.000000 512.000000"
 preserveAspectRatio="xMidYMid meet">

<g transform="translate(0.000000,512.000000) scale(0.100000,-0.100000)"
fill="#000000" stroke="none">
<path d="M1660 4579 c-445 -43 -881 -277 -1286 -690 -240 -246 -316 -354 -355
-507 -49 -192 6 -407 142 -556 62 -67 122 -109 274 -191 50 -26 91 -49 93 -50
1 -1 -86 -157 -193 -346 l-196 -344 6 -50 c11 -86 45 -206 82 -295 230 -540
768 -881 1553 -985 226 -30 641 -45 762 -29 l45 6 123 472 c68 259 127 475
131 480 4 4 39 1 77 -8 102 -23 278 -21 376 4 123 31 228 92 322 185 78 78
171 215 159 234 -3 5 -42 30 -88 55 -106 58 -209 130 -287 203 l-63 58 284 6
c321 6 346 11 494 83 187 92 330 269 390 481 22 77 33 469 16 560 -33 176
-161 315 -334 361 -40 11 -152 14 -497 14 l-446 0 -44 255 -44 255 -60 38
c-278 174 -581 269 -956 302 -132 11 -356 11 -480 -1z m600 -315 c200 -28 406
-92 555 -172 l69 -37 23 -130 c12 -71 37 -212 54 -312 l32 -183 319 0 318 0 0
-109 c0 -171 43 -278 152 -376 88 -79 193 -115 338 -115 44 0 80 -3 80 -7 0
-5 -14 -32 -31 -62 -40 -69 -110 -138 -175 -173 -103 -55 -130 -58 -596 -58
l-428 0 0 -108 c0 -125 15 -186 67 -281 38 -69 164 -207 244 -268 27 -20 49
-40 49 -44 0 -13 -101 -49 -162 -58 -71 -10 -178 1 -253 25 -27 9 -101 39
-163 67 -62 27 -114 48 -116 46 -1 -2 -65 -245 -143 -539 l-140 -535 -149 2
c-910 11 -1565 359 -1734 921 l-22 72 175 308 174 307 34 -2 c207 -10 290 2
407 59 216 107 450 491 587 967 62 215 115 513 131 730 l7 93 96 -7 c53 -3
143 -13 201 -21z m-604 -56 c-47 -504 -190 -967 -392 -1270 -100 -151 -172
-198 -302 -198 -88 0 -95 3 -336 133 -203 110 -250 147 -293 229 -22 44 -27
66 -27 133 -1 107 24 158 151 305 293 337 612 569 931 674 67 23 230 62 266
65 5 1 6 -31 2 -71z m2494 -800 c63 -44 75 -69 78 -179 l4 -99 -92 0 c-105 0
-148 15 -183 64 -19 26 -23 47 -25 134 l-4 102 95 0 c81 0 99 -3 127 -22z"/>
<path d="M2320 3580 l0 -150 150 0 150 0 0 150 0 150 -150 0 -150 0 0 -150z"/>
<path d="M4670 2190 l0 -150 225 0 225 0 0 150 0 150 -225 0 -225 0 0 -150z"/>
<path d="M4450 1655 l-105 -105 158 -158 157 -157 105 105 105 105 -158 158
-157 157 -105 -105z"/>
<path d="M3770 1215 l0 -225 150 0 150 0 0 225 0 225 -150 0 -150 0 0 -225z"/>
</g>
</svg>
